<svg class="icon" viewBox="0 0 1024 1024" xmlns="http://www.w3.org/2000/svg" width="64" height="64"><defs><style/></defs><path d="M511.07.046a511.07 511.07 0 01511.072 511.071c0 282.25-228.82 511.071-511.071 511.071S0 793.368 0 511.118 228.82.045 511.07.045z" fill="#FFF"/><path d="M511.07 92.968a418.149 418.149 0 110 836.298 418.149 418.149 0 010-836.298z" fill="#FB7299"/><path d="M436.733 240.203c40.282.93 77.358 22.487 98.451 57.194 20.35 40.7 0 89.344 5.622 95.059 5.622 5.668 50.55-15.843 67.74-21.233A201.13 201.13 0 01718.89 359.33a92.086 92.086 0 0142.558 89.205c-3.95 38.284-38.052 36.565-78.24 29.735a430.461 430.461 0 00-142.682 17.098c-17.702 5.715-29.92 9.2-38.377 24.113h.65c-8.595 14.868-80.284 179.572-89.344 202.57-15.332 27.877-38.516 50.55-66.485 65.231a108.347 108.347 0 01-98.451-5.714c-27.83-21.837-35.31-38.47-5.11-48.784 30.199-10.268 88.693-84.095 103.56-106.86 14.868-22.813 68.67-99.009 56.776-107.093a293.866 293.866 0 00-102.958 11.569c-16.4 5.064-24.392 13.148-38.655-5.25a159.733 159.733 0 01-23.928-77.126c1.859-9.199 3.624-13.752 5.158-13.752a976.377 976.377 0 00185.565-25.182c7.898-24.439 9.385-50.55 4.414-75.731a301.996 301.996 0 00-29.596-77.265c-4.553-3.485 6.272-15.843 32.987-15.843zM592.285 580.53a412.574 412.574 0 0195.012 27.737c30.153 15.054 132.414 51.618 111.785 117.825-20.582 66.068-29.642 71.643-49.202 55.521C730.367 765.491 561.25 615.097 556 606.733a17.934 17.934 0 011.068-22.3c7.852-6.69 25.228-4.368 35.218-3.903z" fill="#FFF"/></svg>